<?xml version="1.0" standalone="no"?><!DOCTYPE svg PUBLIC "-//W3C//DTD SVG 1.1//EN" "http://www.w3.org/Graphics/SVG/1.1/DTD/svg11.dtd"><svg t="1520953829877" class="icon" style="" viewBox="0 0 1024 1024" version="1.1" xmlns="http://www.w3.org/2000/svg" p-id="2191" xmlns:xlink="http://www.w3.org/1999/xlink" width="16" height="16"><defs><style type="text/css"></style></defs><path d="M163.65429 509.053901c-0.128937 0-0.257873-0.002047-0.38681-0.007163-5.647627-0.209778-10.05603-4.958942-9.846252-10.606569 3.455705-92.917226 42.267663-179.728384 109.286032-244.441245 67.190285-64.878636 155.645896-100.609419 249.071705-100.609419 119.314433 0 230.477208 59.103096 297.358455 158.099784 3.164063 4.682649 1.933025 11.04352-2.750647 14.207583-4.680603 3.164063-11.042497 1.933025-14.207583-2.750647-63.071478-93.356224-167.892825-149.090597-280.400225-149.090597-182.694949 0-331.12142 142.907781-337.90594 325.344856C173.667342 504.719176 169.130002 509.053901 163.65429 509.053901z" p-id="2192"></path><path d="M511.778966 870.609471c-67.653843 0-133.547599-18.937305-190.558034-54.765301-55.457056-34.851763-100.341313-84.133166-129.798205-142.516878-2.545986-5.045923-0.51984-11.200086 4.526083-13.746072 5.0449-2.547009 11.200086-0.520863 13.745049 4.526083 57.897641 114.750487 173.649945 186.03502 302.085106 186.03502 186.452529 0 338.142324-151.689794 338.142324-338.143347 0-14.768355-0.959861-29.623691-2.855024-44.152593-0.730641-5.604648 3.219321-10.739599 8.823969-11.470239 5.603625-0.725524 10.739599 3.219321 11.470239 8.823969 2.00875 15.403828 3.02694 31.149441 3.02694 46.798862 0 48.4075-9.482979 95.373161-28.185946 139.590222-18.061354 42.703591-43.917232 81.055061-76.848249 113.986077s-71.28044 58.785871-113.986077 76.848249C607.151104 861.126492 560.186466 870.609471 511.778966 870.609471z" p-id="2193"></path><path d="M159.53139 525.062504c-0.404206 0-0.810459-0.023536-1.215688-0.072655-2.721994-0.325411-5.199419-1.728364-6.876618-3.89675l-45.530986-58.810431c-3.459798-4.468778-2.642177-10.896164 1.827625-14.355963 4.467755-3.460822 10.895141-2.642177 14.355963 1.827625l39.170115 50.594305 52.350298-41.821501c4.415566-3.52836 10.854209-2.807952 14.382569 1.607614 3.527336 4.415566 2.807952 10.854209-1.607614 14.382569l-60.468187 48.306192C164.095335 524.280698 161.839969 525.062504 159.53139 525.062504z" p-id="2194"></path><path d="M812.672944 517.252631c-2.162246 0-4.342912-0.682545-6.196119-2.095731-4.495384-3.426029-5.360078-9.847276-1.935072-14.341636l42.97886-56.377008c1.76725-2.317789 4.438079-3.771907 7.343245-3.998057 2.901073-0.231267 5.7694 0.796132 7.873318 2.812045l54.340629 52.046377c4.080945 3.90903 4.221138 10.386558 0.312108 14.468526-3.90903 4.081968-10.385535 4.221138-14.468526 0.312108l-46.068222-44.12394-36.034704 47.267537C818.804594 515.865028 815.757189 517.252631 812.672944 517.252631z" p-id="2195"></path><path d="M499.153414 633.757065c-2.505054 0-4.932336-0.918929-6.813173-2.598174L347.0676 501.530554c-4.217045-3.762697-4.585435-10.232039-0.822738-14.44806s10.232039-4.584412 14.44806-0.822738l137.422859 122.623805 186.865945-221.487463c3.64604-4.319375 10.100032-4.866844 14.420431-1.222851s4.866844 10.100032 1.222851 14.419408l-193.650465 229.528604c-1.781576 2.112104-4.341888 3.413749-7.098675 3.608178C499.635391 633.748878 499.392868 633.757065 499.153414 633.757065z" p-id="2196"></path></svg>