<?xml version="1.0" standalone="no"?><!DOCTYPE svg PUBLIC "-//W3C//DTD SVG 1.1//EN" "http://www.w3.org/Graphics/SVG/1.1/DTD/svg11.dtd"><svg t="1526268896580" class="icon" style="" viewBox="0 0 1024 1024" version="1.1" xmlns="http://www.w3.org/2000/svg" p-id="1090" xmlns:xlink="http://www.w3.org/1999/xlink" width="16" height="16"><defs><style type="text/css"></style></defs><path d="M512 960C264.96 960 64 759.04 64 512S264.96 64 512 64c100.330667 0 195.2 32.448 274.346667 93.802667a21.312 21.312 0 1 1-26.112 33.706666A401.621333 401.621333 0 0 0 512 106.666667C288.490667 106.666667 106.666667 288.490667 106.666667 512s181.824 405.333333 405.333333 405.333333 405.333333-181.824 405.333333-405.333333c0-55.637333-11.050667-109.525333-32.853333-160.213333a21.333333 21.333333 0 0 1 39.189333-16.853334A445.568 445.568 0 0 1 960 512c0 247.04-200.981333 448-448 448z" p-id="1091" fill="#1ab334"></path><path d="M456.298667 673.109333a21.269333 21.269333 0 0 1-15.082667-6.250666l-182.549333-182.549334a21.312 21.312 0 1 1 30.165333-30.165333l182.549333 182.549333a21.312 21.312 0 0 1-15.082666 36.416z" p-id="1092" fill="#1ab334"></path><path d="M456.298667 673.109333a21.312 21.312 0 0 1-15.104-36.394666l289.450666-290.602667a21.333333 21.333333 0 1 1 30.208 30.101333L471.402667 666.837333a21.248 21.248 0 0 1-15.104 6.272z" p-id="1093" fill="#1ab334"></path><path d="M850.325333 250.325333m-32 0a32 32 0 1 0 64 0 32 32 0 1 0-64 0Z" p-id="1094" fill="#1ab334"></path></svg>