<?xml version="1.0" standalone="no"?><!DOCTYPE svg PUBLIC "-//W3C//DTD SVG 1.1//EN" "http://www.w3.org/Graphics/SVG/1.1/DTD/svg11.dtd"><svg class="icon" width="16px" height="16.00px" viewBox="0 0 1024 1024" version="1.1" xmlns="http://www.w3.org/2000/svg"><path fill="rgba(255, 255, 255, 0.65)" d="M528.298667 270.186667c34.261333 0 61.952-27.264 61.952-61.013334 0-33.770667-27.690667-61.013333-61.952-61.013333-34.261333 0-61.952 27.242667-61.952 61.013333 0 33.578667 27.690667 61.013333 61.952 61.013334M399.616 528.213333c0-33.770667-27.690667-61.013333-61.952-61.013333-34.261333 0-61.952 27.242667-61.952 61.013333 0 33.749333 27.690667 61.013333 61.952 61.013334 34.112 0 61.952-27.264 61.952-61.013334"  /><path fill="rgba(255, 255, 255, 0.65)" d="M783.189333 368.682667c-52.565333 0-95.232-42.026667-95.232-93.802667 0-51.754667 42.666667-93.781333 95.232-93.781333 52.565333 0 95.232 42.026667 95.232 93.781333 0 51.776-42.666667 93.802667-95.232 93.802667m-164.437333 361.386666c0 51.776-42.666667 93.802667-95.232 93.802667-52.565333 0-95.232-42.026667-95.232-93.781333 0-51.776 42.666667-93.802667 95.232-93.802667 52.565333-0.170667 95.232 41.856 95.232 93.802667m-350.293333-356.693334c-52.565333 0-95.232-42.026667-95.232-93.802666 0-51.776 42.666667-93.802667 95.232-93.802667 52.565333 0 95.232 42.026667 95.232 93.802667 0.170667 51.776-42.496 93.802667-95.232 93.802666M783.189333 115.2c-89.472 0-161.962667 71.402667-161.962666 159.530667 0 24.661333 6.101333 47.701333 16.32 68.629333l-111.573334 71.744-109.717333-70.613333a156.672 156.672 0 0 0 14.336-65.066667c0-88.106667-72.490667-159.509333-161.962667-159.509333C179.157333 119.893333 106.666667 191.317333 106.666667 279.424c0 88.106667 72.490667 159.530667 161.962666 159.530667 46.954667 0 88.96-19.968 118.613334-51.456l110.250666 70.762666v114.730667c-76.949333 12.330667-135.765333 77.738667-135.765333 156.928 0 88.106667 72.490667 159.509333 161.962667 159.509333 89.472 0 161.962667-71.381333 161.962666-159.509333 0-79.36-58.816-144.597333-135.765333-156.928v-111.637333l117.461333-75.477334a162.56 162.56 0 0 0 116.010667 48.533334c89.472 0 161.962667-71.402667 161.962667-159.530667-0.170667-88.277333-72.661333-159.68-162.133334-159.68"  /><path fill="rgba(255, 255, 255, 0.65)" d="M704.597333 476.586667c-34.261333 0-61.952 27.285333-61.952 61.013333 0 33.770667 27.690667 61.034667 61.952 61.034667 34.261333 0 61.952-27.264 61.952-61.013334 0-33.749333-27.690667-61.013333-61.952-61.013333"  /></svg>